<svg width="64" height="64" viewBox="0 0 64 64" fill="none" xmlns="http://www.w3.org/2000/svg">
<g clip-path="url(#clip0_18_248)">
<rect width="64" height="64" fill="#3C3C3C"/>
<rect width="8" height="8" fill="#2D2D2D"/>
<rect y="16" width="8" height="8" fill="#2D2D2D"/>
<rect y="32" width="8" height="8" fill="#2D2D2D"/>
<rect y="48" width="8" height="8" fill="#2D2D2D"/>
<rect x="16" width="8" height="8" fill="#2D2D2D"/>
<rect x="16" y="16" width="8" height="8" fill="#2D2D2D"/>
<rect x="16" y="32" width="8" height="8" fill="#2D2D2D"/>
<rect x="16" y="48" width="8" height="8" fill="#2D2D2D"/>
<rect x="32" width="8" height="8" fill="#2D2D2D"/>
<rect x="32" y="16" width="8" height="8" fill="#2D2D2D"/>
<rect x="32" y="32" width="8" height="8" fill="#2D2D2D"/>
<rect x="32" y="48" width="8" height="8" fill="#2D2D2D"/>
<rect x="48" width="8" height="8" fill="#2D2D2D"/>
<rect x="48" y="16" width="8" height="8" fill="#2D2D2D"/>
<rect x="48" y="32" width="8" height="8" fill="#2D2D2D"/>
<rect x="48" y="48" width="8" height="8" fill="#2D2D2D"/>
<rect x="8" y="8" width="8" height="8" fill="#2D2D2D"/>
<rect x="8" y="24" width="8" height="8" fill="#2D2D2D"/>
<rect x="8" y="40" width="8" height="8" fill="#2D2D2D"/>
<rect x="8" y="56" width="8" height="8" fill="#2D2D2D"/>
<rect x="24" y="8" width="8" height="8" fill="#2D2D2D"/>
<rect x="24" y="24" width="8" height="8" fill="#2D2D2D"/>
<rect x="24" y="40" width="8" height="8" fill="#2D2D2D"/>
<rect x="24" y="56" width="8" height="8" fill="#2D2D2D"/>
<rect x="40" y="8" width="8" height="8" fill="#2D2D2D"/>
<rect x="40" y="24" width="8" height="8" fill="#2D2D2D"/>
<rect x="40" y="40" width="8" height="8" fill="#2D2D2D"/>
<rect x="40" y="56" width="8" height="8" fill="#2D2D2D"/>
<rect x="56" y="8" width="8" height="8" fill="#2D2D2D"/>
<rect x="56" y="24" width="8" height="8" fill="#2D2D2D"/>
<rect x="56" y="40" width="8" height="8" fill="#2D2D2D"/>
<rect x="56" y="56" width="8" height="8" fill="#2D2D2D"/>
<path d="M16.1761 55V8.45454H33.2216C36.5246 8.45454 39.2595 9 41.4261 10.0909C43.5928 11.1667 45.214 12.6288 46.2898 14.4773C47.3655 16.3106 47.9034 18.3788 47.9034 20.6818C47.9034 22.6212 47.5474 24.2576 46.8352 25.5909C46.1231 26.9091 45.1686 27.9697 43.9716 28.7727C42.7898 29.5606 41.4867 30.1364 40.0625 30.5V30.9545C41.608 31.0303 43.1155 31.5303 44.5852 32.4545C46.0701 33.3636 47.2973 34.6591 48.267 36.3409C49.2367 38.0227 49.7216 40.0682 49.7216 42.4773C49.7216 44.8561 49.161 46.9924 48.0398 48.8864C46.9337 50.7652 45.2216 52.2576 42.9034 53.3636C40.5852 54.4545 37.6231 55 34.017 55H16.1761ZM23.1989 48.9773H33.3352C36.6989 48.9773 39.108 48.3258 40.5625 47.0227C42.017 45.7197 42.7443 44.0909 42.7443 42.1364C42.7443 40.6667 42.3731 39.3182 41.6307 38.0909C40.8883 36.8636 39.8277 35.8864 38.4489 35.1591C37.0852 34.4318 35.464 34.0682 33.5852 34.0682H23.1989V48.9773ZM23.1989 28.5909H32.608C34.1837 28.5909 35.6004 28.2879 36.858 27.6818C38.1307 27.0758 39.1383 26.2273 39.8807 25.1364C40.6383 24.0303 41.017 22.7273 41.017 21.2273C41.017 19.303 40.3428 17.6894 38.9943 16.3864C37.6458 15.0833 35.5777 14.4318 32.7898 14.4318H23.1989V28.5909Z" fill="white"/>
</g>
<defs>
<clipPath id="clip0_18_248">
<rect width="64" height="64" fill="white"/>
</clipPath>
</defs>
</svg>
